<svg xmlns="http://www.w3.org/2000/svg" version="1.1" xmlns:xlink="http://www.w3.org/1999/xlink" xmlns:svgjs="http://svgjs.com/svgjs" width="260" height="260"><svg width="260" height="260" viewBox="0 0 260 260" fill="none" xmlns="http://www.w3.org/2000/svg">
<rect width="260" height="260" rx="50" fill="#2F436A"></rect>
<path d="M71.1047 186.6C67.1047 186.6 64.038 185.533 61.9047 183.4C59.7714 181.133 58.7047 177.933 58.7047 173.8V98.2C58.7047 94.0667 59.7714 90.9333 61.9047 88.8C64.038 86.6667 67.038 85.6 70.9047 85.6C74.7714 85.6 77.7714 86.6667 79.9047 88.8C82.038 90.9333 83.1047 94.0667 83.1047 98.2V112.8L80.9047 106.8C83.5714 100.133 87.7047 94.8667 93.3047 91C98.9047 87.1333 105.571 85.2 113.305 85.2C121.171 85.2 127.638 87.0667 132.705 90.8C137.771 94.5333 141.305 100.267 143.305 108H140.505C143.171 100.933 147.571 95.4 153.705 91.4C159.838 87.2667 166.905 85.2 174.905 85.2C182.371 85.2 188.505 86.6667 193.305 89.6C198.238 92.5333 201.905 97 204.305 103C206.705 108.867 207.905 116.333 207.905 125.4V173.8C207.905 177.933 206.771 181.133 204.505 183.4C202.371 185.533 199.305 186.6 195.305 186.6C191.305 186.6 188.238 185.533 186.105 183.4C183.971 181.133 182.905 177.933 182.905 173.8V126.4C182.905 118.933 181.638 113.467 179.105 110C176.705 106.533 172.571 104.8 166.705 104.8C160.171 104.8 155.038 107.133 151.305 111.8C147.571 116.333 145.705 122.667 145.705 130.8V173.8C145.705 177.933 144.638 181.133 142.505 183.4C140.371 185.533 137.305 186.6 133.305 186.6C129.305 186.6 126.171 185.533 123.905 183.4C121.771 181.133 120.705 177.933 120.705 173.8V126.4C120.705 118.933 119.438 113.467 116.905 110C114.505 106.533 110.438 104.8 104.705 104.8C98.1714 104.8 93.038 107.133 89.3047 111.8C85.5714 116.333 83.7047 122.667 83.7047 130.8V173.8C83.7047 182.333 79.5047 186.6 71.1047 186.6Z" fill="white"></path>
</svg><style>@media (prefers-color-scheme: light) { :root { filter: none; } }
</style></svg>