<?xml version="1.0" encoding="utf-8"?><!-- Uploaded to: SVG Repo, www.svgrepo.com, Generator: SVG Repo Mixer Tools -->
<svg width="800px" height="800px" viewBox="0 0 24 24" fill="#fff" xmlns="http://www.w3.org/2000/svg">
    <path fill-rule="evenodd" clip-rule="evenodd" d="M10.661 7.86213C10.4142 8.04749 10.25 8.31328 10.25 8.75C10.25 9.30228 9.80229 9.75 9.25 9.75C8.69772 9.75 8.25 9.30228 8.25 8.75C8.25 7.68672 8.70818 6.82751 9.46005 6.26288C10.1787 5.72317 11.0967 5.5 12 5.5C13.0779 5.5 13.987 5.82418 14.6436 6.44499C15.2951 7.06101 15.6046 7.88116 15.6531 8.7005C15.7483 10.3042 14.864 12.0687 13.2461 12.9932C13.099 13.0773 13.008 13.1462 12.9529 13.1958C13.0783 13.5886 12.9509 14.0345 12.6034 14.2974C12.163 14.6307 11.5359 14.5438 11.2026 14.1034C11.2026 14.1034 11.2031 14.1041 11.2016 14.1021L11.2005 14.1007C10.9606 13.778 10.865 13.355 10.9137 12.9585C10.9974 12.277 11.4727 11.7031 12.2539 11.2568C13.2157 10.7071 13.7065 9.65911 13.6567 8.8189C13.6328 8.41625 13.4898 8.10656 13.2695 7.89822C13.0542 7.69468 12.6721 7.5 12 7.5C11.3981 7.5 10.9411 7.65183 10.661 7.86213Z" fill="#fff"/>
    <path d="M12 18.5C12.8284 18.5 13.5 17.8284 13.5 17C13.5 16.1716 12.8284 15.5 12 15.5C11.1716 15.5 10.5 16.1716 10.5 17C10.5 17.8284 11.1716 18.5 12 18.5Z" fill="#fff"/>
    <path fill-rule="evenodd" clip-rule="evenodd" d="M1 12C1 5.92487 5.92487 1 12 1C18.0751 1 23 5.92487 23 12C23 18.0751 18.0751 23 12 23C5.92487 23 1 18.0751 1 12ZM12 3C7.02944 3 3 7.02944 3 12C3 16.9706 7.02944 21 12 21C16.9706 21 21 16.9706 21 12C21 7.02944 16.9706 3 12 3Z" fill="#fff"/>
</svg>