<!DOCTYPE svg PUBLIC "-//W3C//DTD SVG 1.1//EN" "http://www.w3.org/Graphics/SVG/1.1/DTD/svg11.dtd">

<!-- Uploaded to: SVG Repo, www.svgrepo.com, Transformed by: SVG Repo Mixer Tools -->
<svg fill="#ffffff" width="100%" height="100%" viewBox="-1.92 -1.92 35.84 35.84" version="1.1" xmlns="http://www.w3.org/2000/svg" stroke="#ffffff" stroke-width="0.00032">

<g id="SVGRepo_bgCarrier" stroke-width="0"/>

<g id="SVGRepo_tracerCarrier" stroke-linecap="round" stroke-linejoin="round" stroke="#ffffff" stroke-width="1.088"> <path d="M16 2.421l4.296 8.909 9.769 1.452-7.075 7.057 0.238 1.416 1.415 8.443-8.644-4.649-8.643 4.652 1.415-8.444 0.237-1.416-7.073-7.059 9.768-1.452 0.642-1.329zM15.999 0.486c-0.896 0-1.712 0.505-2.093 1.296l-3.622 7.52-8.335 1.239c-0.856 0.128-1.567 0.713-1.843 1.512-0.276 0.802-0.067 1.684 0.537 2.286l6.106 6.1-1.417 8.458c-0.143 0.852 0.226 1.707 0.949 2.206 0.397 0.273 0.864 0.411 1.332 0.411 0.385 0 0.77-0.093 1.119-0.281l7.266-3.912 7.266 3.912c0.349 0.187 0.735 0.281 1.118 0.281 0.468 0 0.934-0.138 1.333-0.411 0.722-0.498 1.091-1.353 0.947-2.206l-1.417-8.458 6.11-6.1c0.605-0.601 0.812-1.485 0.536-2.286s-0.988-1.385-1.843-1.512l-8.333-1.239-3.624-7.52c-0.378-0.791-1.195-1.295-2.093-1.295z"/> </g>

<g id="SVGRepo_iconCarrier"> <path d="M16 2.421l4.296 8.909 9.769 1.452-7.075 7.057 0.238 1.416 1.415 8.443-8.644-4.649-8.643 4.652 1.415-8.444 0.237-1.416-7.073-7.059 9.768-1.452 0.642-1.329zM15.999 0.486c-0.896 0-1.712 0.505-2.093 1.296l-3.622 7.52-8.335 1.239c-0.856 0.128-1.567 0.713-1.843 1.512-0.276 0.802-0.067 1.684 0.537 2.286l6.106 6.1-1.417 8.458c-0.143 0.852 0.226 1.707 0.949 2.206 0.397 0.273 0.864 0.411 1.332 0.411 0.385 0 0.77-0.093 1.119-0.281l7.266-3.912 7.266 3.912c0.349 0.187 0.735 0.281 1.118 0.281 0.468 0 0.934-0.138 1.333-0.411 0.722-0.498 1.091-1.353 0.947-2.206l-1.417-8.458 6.11-6.1c0.605-0.601 0.812-1.485 0.536-2.286s-0.988-1.385-1.843-1.512l-8.333-1.239-3.624-7.52c-0.378-0.791-1.195-1.295-2.093-1.295z"/> </g>

</svg>